<?xml version="1.0" standalone="no"?> <!DOCTYPE svg PUBLIC "-//W3C//DTD SVG 20010904//EN" "http://www.w3.org/TR/2001/REC-SVG-20010904/DTD/svg10.dtd"> <svg version="1.0" xmlns="http://www.w3.org/2000/svg" width="600.000000pt" height="327.000000pt" viewBox="0 0 600.000000 327.000000" preserveAspectRatio="xMidYMid meet"> <g transform="translate(0.000000,327.000000) scale(0.050000,-0.050000)" fill="#a61717" stroke="none"> <path d="M11560 5846 c-301 -69 -2886 -107 -3142 -46 l-107 26 -75 -89 -76 -89 -225 46 c-124 24 -350 59 -503 77 -153 18 -356 45 -450 60 -242 40 -762 38 -903 -3 -60 -17 -204 -39 -320 -48 -385 -31 -852 -136 -1138 -258 -232 -99 -965 -592 -1186 -798 l-56 -52 -104 99 c-57 54 -107 101 -112 103 -4 2 4 36 17 75 33 102 4 131 -133 131 -212 0 -339 -100 -277 -219 46 -90 224 -139 284 -79 41 41 130 10 193 -68 105 -130 45 -163 -228 -125 -1222 171 -1826 -92 -2317 -1011 -226 -423 -238 -519 -85 -685 88 -95 89 -97 20 -46 l-72 54 -23 -157 c-27 -186 -23 -200 79 -283 l80 -63 67 71 c79 84 36 81 484 31 197 -21 601 -62 898 -89 634 -59 653 -64 1139 -310 487 -247 538 -283 446 -320 -37 -15 -30 -19 42 -20 104 -1 89 -43 -29 -82 -84 -27 -121 -8 -382 196 -505 397 -589 433 -1107 485 -225 22 -623 64 -885 92 -600 65 -587 70 -756 -277 -25 -52 -53 -95 -63 -95 -9 0 -6 19 6 42 35 65 9 66 -63 2 l-65 -58 51 -34 c65 -42 516 -141 826 -181 526 -66 1872 -189 2106 -191 15 0 21 -8 15 -18 -25 -41 992 -73 1369 -43 487 38 708 132 990 423 206 212 235 230 110 68 -330 -428 -565 -521 -1370 -542 -447 -12 -1163 19 -1670 72 -104 11 -406 39 -670 61 -1003 85 -1658 213 -1767 345 -40 49 -13 97 96 172 186 126 213 185 36 79 -143 -86 -215 -156 -215 -209 0 -42 101 -148 142 -148 87 0 -26 -47 -227 -94 l-245 -57 -6 -191 -5 -190 185 -35 c324 -61 654 -94 1076 -107 228 -7 388 -19 360 -27 -27 -8 -232 -53 -455 -100 -223 -47 -401 -89 -397 -94 4 -4 312 42 685 102 710 114 948 144 916 116 -10 -9 -71 -29 -135 -43 -64 -15 -121 -35 -127 -45 -14 -23 63 -12 633 87 615 107 593 104 570 82 -11 -11 -191 -57 -400 -102 -851 -185 -834 -200 70 -62 662 102 1144 158 1116 130 -5 -6 -292 -64 -638 -129 -938 -177 -2790 -575 -2770 -595 11 -11 797 139 1497 286 1882 394 2787 547 1945 327 -587 -152 -1701 -485 -1570 -469 83 11 335 64 1270 267 198 43 590 125 870 182 508 103 1610 371 2461 598 247 66 764 198 1149 294 671 167 1267 333 1330 371 22 13 16 16 -20 9 -680 -131 -1095 -198 -1068 -171 19 18 307 94 1387 361 356 89 662 170 680 181 25 17 24 19 -9 8 -22 -7 -112 -30 -200 -50 -572 -131 -822 -191 -1315 -317 -306 -78 -747 -187 -980 -242 -234 -55 -447 -106 -475 -113 -33 -9 -43 -7 -30 6 11 11 133 49 270 85 138 35 336 91 440 123 105 32 204 58 220 58 26 1 26 3 1 19 -26 16 41 61 90 61 26 0 4 -38 -26 -46 -25 -7 -22 -10 12 -12 32 -1 50 11 58 40 7 26 16 33 25 18 10 -17 32 -17 82 -1 l68 21 -65 -10 c-36 -5 -65 0 -65 11 0 10 12 19 28 19 15 0 57 5 95 12 51 9 60 6 37 -10 -43 -31 -23 -27 122 20 126 41 191 74 103 53 -25 -6 -45 -4 -45 5 0 26 100 36 116 11 11 -18 35 -18 104 2 l90 26 -90 -7 c-75 -7 -82 -5 -40 12 28 11 77 31 110 45 33 14 105 41 160 58 55 18 80 29 55 25 -25 -5 -45 -1 -45 8 0 8 27 19 59 24 32 5 54 1 49 -8 -6 -9 10 -17 36 -18 43 -2 43 -3 -9 -24 -145 -57 -32 -61 153 -6 55 17 106 26 115 20 10 -6 17 -2 17 8 0 26 77 45 91 22 18 -29 69 -21 69 12 0 34 33 41 43 10 6 -18 775 158 1584 361 224 57 304 95 270 128 -4 4 -88 -8 -187 -28 -258 -52 -330 -61 -330 -42 0 9 34 27 75 39 l75 21 -89 -10 c-117 -14 -91 8 86 75 78 29 138 54 133 55 -6 0 -73 -12 -149 -28 -257 -54 -184 24 111 119 115 36 193 67 174 68 -19 1 -104 -20 -189 -47 -86 -27 -159 -45 -164 -41 -16 16 242 104 357 122 45 7 86 21 92 31 12 20 -135 1 -212 -27 -32 -12 -52 -11 -56 3 -4 12 -19 9 -37 -9 -39 -39 -107 -39 -107 1 0 17 22 52 48 79 41 41 43 49 15 56 -44 10 21 39 212 95 153 45 212 119 95 119 -27 0 -50 -8 -50 -17 0 -10 -29 -23 -65 -29 -36 -6 -95 -18 -132 -26 -64 -13 -67 -11 -53 33 8 25 14 85 13 133 -1 73 6 91 43 106 l44 17 -45 2 c-51 1 -64 74 -21 117 19 19 19 24 0 24 -13 0 -24 18 -24 39 0 40 9 44 245 102 52 13 95 31 95 39 0 9 -34 8 -75 -2 -112 -26 -146 -23 -132 12 6 17 1 30 -11 30 -12 0 -22 -13 -22 -28 0 -27 -41 -52 -84 -52 -12 0 -15 21 -8 49 7 27 3 54 -9 61 -11 8 -15 31 -8 52 8 26 2 38 -20 38 -42 0 -39 34 4 57 19 10 109 34 200 53 108 24 165 45 165 63 0 34 -2 34 -192 -3 -95 -18 -164 -22 -175 -11 -10 10 -28 14 -41 9 -28 -11 -99 104 -82 132 7 11 25 20 41 20 16 0 29 9 29 20 0 27 -46 26 -74 -2 -15 -15 -39 -4 -84 40 -35 34 -72 62 -83 62 -10 0 -19 10 -19 23 0 15 22 17 65 8 81 -18 58 -21 351 37 242 47 282 60 259 84 -14 14 -465 -44 -588 -75 -86 -22 -224 -5 -194 23 9 9 71 26 137 37 66 11 174 34 240 51 l120 30 -141 -10 c-114 -9 -171 -2 -290 35 -124 39 -193 47 -414 47 -146 0 -265 4 -265 9 0 75 137 221 209 223 45 1 122 4 171 7 138 7 442 15 513 13 54 -2 67 -13 95 -83 82 -206 212 -64 212 232 0 49 -2 89 -5 89 -3 0 -32 7 -65 16 -36 9 -104 6 -170 -10z m-4810 -46 c-49 -21 -241 -21 -390 -1 -86 12 -51 16 160 17 167 1 255 -5 230 -16z m3867 -95 c-27 -30 -98 -133 -158 -229 -139 -226 -154 -212 -19 17 103 175 198 296 217 277 6 -6 -12 -35 -40 -65z m-2957 -5 c572 -99 890 -204 1506 -496 l237 -112 -67 -37 c-36 -20 -48 -32 -26 -26 581 148 658 140 210 -21 -148 -53 -274 -102 -280 -109 -5 -6 -40 -23 -76 -38 -99 -40 -68 -43 76 -6 71 18 118 36 104 40 -26 9 876 322 1081 376 266 70 557 73 794 9 116 -31 100 -56 -24 -38 -394 56 -740 -17 -1519 -322 l-114 -45 69 -64 c95 -90 122 -164 109 -303 l-10 -116 -270 -75 c-490 -135 -1474 -479 -1680 -587 -202 -106 -194 -107 -262 45 -34 74 -83 164 -111 200 -36 48 -42 68 -23 74 228 79 387 108 413 75 38 -48 16 24 -60 192 -81 180 -84 174 138 214 342 61 894 204 805 209 -65 3 -90 35 -59 73 26 32 25 34 -11 20 -70 -26 -278 -71 -287 -61 -5 4 26 22 69 39 202 80 278 125 349 206 l77 88 111 -64 c61 -34 111 -59 111 -53 0 5 -40 33 -89 62 -50 28 -141 97 -205 153 -367 321 -1483 550 -2180 447 -219 -33 -536 -116 -581 -153 -16 -13 -71 -17 -144 -9 -118 12 -193 -16 -86 -33 30 -4 -134 -9 -365 -11 -231 -2 -510 -8 -620 -14 -147 -9 -191 -6 -166 10 18 12 176 27 350 35 217 8 322 20 336 38 43 54 516 174 820 206 335 37 365 38 840 32 362 -5 513 -15 710 -50z m2848 -40 c-15 -15 -962 -27 -1623 -20 -25 0 -45 9 -45 20 0 13 295 20 844 20 550 0 837 -7 824 -20z m818 5 c-90 -4 -243 -4 -340 0 -97 4 -23 7 164 7 187 0 266 -3 176 -7z m-867 -100 c-1 -8 -43 -78 -95 -155 -112 -166 -177 -196 -487 -219 l-191 -14 -473 153 c-472 154 -564 203 -438 236 60 16 1685 15 1684 -1z m-2465 -86 c231 -31 591 -167 636 -240 8 -12 -59 15 -149 60 -301 152 -571 179 -1331 135 -170 -10 -315 -9 -370 2 -74 16 -38 20 210 24 165 2 354 11 420 19 185 23 411 23 584 0z m-2997 -89 c-6 -6 -140 -92 -299 -192 -158 -99 -277 -169 -263 -155 82 83 0 37 -146 -83 -95 -77 -179 -140 -189 -140 -9 0 -45 -23 -78 -52 -57 -47 -83 -45 -47 4 30 40 -148 -148 -272 -289 l-127 -143 757 4 757 4 -560 13 c-723 18 -694 16 -681 38 29 46 848 716 1042 851 l214 150 292 -1 293 0 -108 -65 c-489 -292 -1366 -906 -1320 -923 15 -6 321 -13 678 -16 426 -3 629 -11 590 -23 -33 -10 -64 -24 -70 -32 -12 -17 -273 -103 -730 -240 -729 -218 -1345 -484 -1755 -756 -75 -50 -132 -93 -128 -97 6 -6 944 375 1003 408 13 7 13 4 0 -10 -11 -11 -218 -122 -460 -246 -242 -123 -449 -233 -460 -244 -11 -10 169 76 400 191 604 302 804 394 1320 608 1286 531 1651 624 2223 566 108 -11 299 -23 425 -27 185 -6 231 -13 246 -40 10 -18 31 -33 47 -33 16 0 29 -9 29 -20 0 -33 -368 -23 -690 20 -548 72 -711 36 -1142 -250 l-166 -111 -92 23 c-344 87 -1348 -327 -2360 -972 -176 -112 -399 -252 -495 -310 -96 -59 -173 -108 -170 -111 11 -10 1575 197 1897 252 265 44 279 46 238 19 -23 -15 -13 -20 40 -20 l70 -2 -54 -29 c-223 -121 -1384 -257 -2196 -257 -465 0 -1091 32 -1115 57 -15 14 206 351 230 351 14 0 25 14 25 31 0 41 252 371 464 609 451 506 701 644 1169 648 134 1 250 9 259 17 8 8 -32 15 -89 15 -70 0 -103 8 -102 25 4 63 975 834 1211 962 54 29 472 51 445 23z m2103 -251 c-21 -126 -52 -295 -69 -376 -39 -183 -44 -177 142 -160 228 21 324 20 286 -2 -17 -10 -139 -28 -270 -40 -294 -25 -289 -25 -289 -1 0 11 12 20 27 20 18 0 49 111 101 365 82 402 92 442 103 430 5 -4 -9 -110 -31 -236z m1195 106 c32 -74 71 -169 84 -211 27 -84 13 -129 -16 -52 -10 27 -50 127 -89 223 -83 205 -67 237 21 40z m2799 -226 c-109 -95 -229 -319 -284 -529 -45 -174 -70 -205 -70 -89 l0 90 -235 -15 c-232 -14 -522 -44 -671 -69 l-76 -13 6 107 6 107 130 27 c217 44 826 149 898 155 42 3 75 19 87 43 52 99 131 197 185 230 105 65 119 40 24 -44z m-2993 29 c110 -33 219 -87 219 -109 0 -6 -150 -8 -333 -3 l-333 9 12 -76 c15 -90 -19 -70 -37 23 -33 165 191 239 472 156z m-5142 -47 c-71 -61 -127 -76 -149 -41 -13 21 136 99 189 100 17 0 -1 -26 -40 -59z m1481 -48 c0 -7 -334 -270 -380 -299 -55 -34 108 108 238 208 123 94 142 106 142 91z m6900 -75 c22 -15 13 -17 -35 -8 -79 16 -85 -3 -10 -34 l55 -22 -75 -14 c-179 -33 -270 -214 -195 -389 22 -51 32 -88 22 -82 -9 5 -28 37 -42 71 -14 33 -32 60 -40 60 -44 0 -56 -441 -17 -620 l24 -110 43 139 c35 115 51 142 91 151 37 9 50 27 54 71 5 49 2 53 -16 24 -32 -53 -59 -42 -59 25 0 66 28 75 88 30 35 -26 50 -23 150 32 l112 62 -85 -74 c-107 -93 -107 -134 0 -258 101 -119 110 -106 113 168 2 118 9 161 22 140 15 -23 19 -13 20 39 0 51 6 63 22 47 40 -40 11 -535 -38 -672 -135 -372 -348 -374 -529 -4 -35 72 -53 96 -45 60 7 -33 35 -104 62 -158 70 -138 46 -136 -27 3 -277 520 -12 1566 335 1323z m-3036 -42 c-24 -24 -384 -52 -361 -27 12 13 218 44 326 48 45 2 54 -2 35 -21z m-784 -137 c0 -22 19 -77 41 -122 41 -79 44 -123 5 -72 -54 69 -100 235 -66 235 11 0 20 -18 20 -41z m-3657 -115 c-156 -181 -187 -194 -44 -19 70 86 131 151 137 146 5 -5 -37 -63 -93 -127z m3887 65 c-119 -33 -150 -35 -150 -10 0 20 70 34 180 36 64 1 62 -1 -30 -26z m-4900 -88 c86 -14 93 -18 52 -32 -210 -68 -689 -368 -753 -471 -18 -29 -8 -23 181 102 255 169 268 160 25 -18 -255 -187 -566 -500 -697 -702 -37 -57 -70 -93 -74 -81 -12 35 109 276 210 418 84 118 88 127 35 89 -132 -96 -649 -657 -649 -705 0 -18 164 -60 246 -62 24 -1 62 -10 84 -20 46 -20 -77 -8 -249 25 l-108 20 -57 -67 -57 -67 36 65 c29 54 31 71 10 105 -24 37 -22 40 20 30 37 -8 60 10 130 107 224 310 544 622 924 899 163 118 341 281 341 311 0 35 -329 -3 -478 -55 -414 -144 -609 -348 -911 -948 -151 -299 -176 -333 -198 -274 -6 16 -5 29 3 27 41 -6 40 8 -7 60 -91 103 -173 223 -151 223 11 0 64 -54 116 -120 l96 -121 84 176 c155 323 248 579 249 685 1 99 1 100 114 168 185 111 438 200 683 239 92 14 649 10 750 -6z m73 -144 c62 -58 63 -62 17 -47 -65 20 -100 48 -100 82 0 39 7 36 83 -35z m6394 -227 c-6 -6 -172 -68 -369 -138 -197 -70 -508 -187 -692 -260 -318 -126 -408 -154 -365 -115 27 25 486 203 936 362 211 75 397 141 413 147 39 14 89 17 77 4z m-2198 -65 c448 -211 629 -1175 328 -1748 -426 -810 -1221 -370 -1216 673 5 755 442 1285 888 1075z m-805 -108 c-68 -72 -140 -161 -160 -199 l-37 -68 45 60 c67 90 301 314 314 301 6 -7 -30 -54 -80 -106 -117 -120 -199 -251 -257 -410 -55 -150 -72 -175 -121 -175 -46 0 -47 17 -7 118 29 71 29 84 0 140 -41 80 -51 78 -37 -7 13 -80 -30 -163 -215 -421 -261 -364 -453 -531 -670 -581 -204 -47 -273 -29 -99 26 337 106 651 394 909 835 71 120 20 60 -94 -111 -198 -296 -290 -379 -425 -379 -63 0 -203 -18 -310 -40 -107 -22 -204 -40 -215 -40 -11 0 38 54 111 120 199 183 574 699 574 790 0 272 -1139 -106 -2017 -669 -336 -216 -400 -215 977 -21 369 51 463 56 396 18 -62 -35 -1557 -230 -1609 -210 -83 32 212 262 570 443 80 41 151 87 157 103 6 15 26 26 43 23 49 -7 125 23 112 44 -6 10 3 13 20 7 17 -7 31 -2 31 11 0 13 7 19 15 15 8 -5 105 35 215 89 110 53 184 93 164 87 -22 -6 -31 -1 -23 12 7 11 26 16 41 10 15 -6 160 34 323 89 509 170 720 105 576 -179 -63 -124 -76 -124 271 -3 l284 99 167 164 c198 193 240 203 61 15z m4466 127 c0 -9 -88 -33 -195 -52 -219 -40 -915 -186 -973 -204 -22 -8 -32 -4 -24 8 29 48 1192 289 1192 248z m-9600 -174 c28 -33 14 -115 -33 -186 -40 -63 -87 -25 -87 70 0 124 63 185 120 116z m-269 -157 c-29 -49 -68 -102 -87 -116 -36 -29 -19 4 83 157 62 94 65 64 4 -41z m8523 25 c-20 -12 -182 -79 -360 -150 -361 -144 -957 -430 -920 -443 12 -4 93 33 179 82 l157 90 450 62 c248 35 488 68 535 74 105 14 106 -4 9 -100 -89 -86 -403 -226 -821 -366 -282 -94 -380 -107 -149 -20 333 126 495 191 481 192 -8 0 -152 -32 -320 -72 -168 -40 -330 -77 -362 -82 l-56 -10 76 -80 c43 -44 117 -106 165 -137 57 -37 78 -60 60 -67 -253 -89 -268 -97 -217 -116 69 -26 204 -4 401 64 l168 58 -135 1 c-76 1 -135 11 -135 22 0 11 32 20 70 20 249 0 1492 305 1443 353 -4 5 -32 -1 -62 -12 -87 -34 -93 -25 -38 54 64 95 60 296 -10 415 -63 106 -55 105 79 -13 67 -59 148 -128 180 -153 l57 -46 142 42 c185 55 199 40 25 -26 l-136 -52 100 -2 100 -2 -90 -48 c-49 -26 -142 -67 -206 -91 -185 -71 -122 -62 104 13 114 39 222 67 239 64 40 -8 -403 -183 -597 -236 -82 -22 -303 -82 -490 -132 -187 -50 -344 -95 -348 -100 -43 -43 500 102 1278 341 466 144 455 140 430 114 -22 -23 -485 -171 -950 -303 -396 -113 -664 -195 -1246 -383 -449 -145 -858 -259 -920 -256 -13 1 129 52 316 114 319 105 336 113 272 130 -113 30 -156 71 -325 312 -89 128 -185 257 -212 286 -27 30 -44 62 -38 73 19 31 179 44 211 18 23 -19 26 -18 18 6 -11 34 -81 37 -261 11 -147 -20 -153 12 -10 54 l105 30 -90 5 c-84 4 -86 6 -30 20 175 44 211 30 345 -138 l39 -49 58 41 c125 88 576 294 1041 475 175 68 276 93 201 49z m-4180 -61 c91 -86 38 -237 -84 -237 -86 0 -159 82 -140 159 30 120 138 158 224 78z m-4266 -141 c80 -93 87 -119 40 -157 -36 -31 -47 -20 -109 111 -73 152 -40 174 69 46z m3627 -20 c44 -36 31 -170 -19 -205 -94 -66 -196 -5 -196 118 0 114 123 164 215 87z m3245 29 c-1 -19 -242 -150 -255 -137 -18 19 20 54 111 101 97 50 144 62 144 36z m1759 -139 c-48 -64 -132 -163 -186 -221 -110 -117 -107 -121 54 -66 62 21 113 32 113 24 0 -9 -61 -36 -135 -62 -74 -25 -288 -103 -475 -172 -390 -145 -450 -163 -450 -131 0 12 14 22 31 22 63 0 657 242 735 300 84 61 187 177 309 346 39 53 75 91 80 85 6 -5 -28 -62 -76 -125z m-4531 -127 c-44 -43 -257 -82 -822 -148 -502 -60 -605 -26 -146 47 730 117 875 139 939 140 l70 2 -41 -41z m977 -14 c-30 -148 -43 -536 -26 -775 42 -575 20 -662 -29 -119 -30 331 -30 424 3 754 l11 115 -67 -12 -67 -11 48 42 c51 45 136 48 127 6z m-905 -15 c0 -21 -169 -193 -229 -234 -33 -23 2 22 78 101 139 142 151 153 151 133z m735 -165 c-78 -179 -359 -572 -426 -598 -16 -6 -29 -20 -29 -32 0 -11 34 4 75 34 l75 54 -78 -71 c-150 -137 -712 -288 -712 -192 0 11 26 20 57 20 336 0 631 203 909 625 150 226 168 250 129 160z m4943 -153 c-11 -11 -354 -92 -390 -92 -70 0 -18 36 67 47 52 6 131 20 175 30 88 20 161 28 148 15z m-491 -88 c6 -8 -44 -34 -109 -57 -137 -48 -151 -20 -17 35 103 42 113 43 126 22z m-357 -125 c25 -1 10 -13 -38 -30 -43 -16 -84 -23 -90 -16 -7 7 0 17 15 22 23 8 23 13 0 29 -19 14 -12 16 23 8 28 -6 68 -12 90 -13z m-164 -39 c-6 -22 -18 -40 -27 -40 -9 0 -30 -5 -47 -12 -18 -7 -32 -3 -32 9 0 11 18 26 40 33 22 7 35 21 29 31 -6 11 2 19 18 19 19 0 26 -13 19 -40z m-637 -38 c-35 -34 -1229 -417 -1399 -449 l-60 -11 64 28 c35 16 165 60 290 98 494 152 1008 317 1036 333 41 24 93 24 69 1z m-3421 -27 c-203 -356 -441 -554 -664 -555 -136 0 -110 34 70 95 167 56 276 135 450 325 144 158 172 184 144 135z m-1766 -230 c122 -55 620 -571 618 -641 -1 -15 -53 40 -345 360 -200 221 -321 295 -484 298 -56 1 -123 10 -151 20 -34 12 3 15 112 10 104 -5 195 -22 250 -47z m1937 -280 c-322 -351 -435 -432 -710 -504 -200 -52 -306 -51 -121 1 219 62 337 129 523 294 320 283 467 382 308 209z"/> <path d="M9477 4841 c-15 -43 -767 -244 -1426 -380 -164 -34 -302 -65 -305 -68 -18 -19 86 -213 109 -204 105 41 1406 333 1791 402 65 12 73 19 62 56 -36 116 -208 260 -231 194z"/> <path d="M4820 4298 c-558 -26 -962 -151 -1606 -497 -352 -190 -891 -541 -829 -541 16 0 795 323 1077 446 394 173 974 377 1438 505 247 68 360 106 310 104 -22 0 -197 -8 -390 -17z"/> <path d="M1862 3212 c-36 -44 70 -62 130 -22 26 17 48 35 48 40 0 23 -157 7 -178 -18z"/> <path d="M11266 3895 c6 -47 17 -107 23 -135 12 -49 12 -49 -12 -5 -32 62 -57 56 -57 -14 0 -32 -9 -64 -19 -70 -12 -8 -15 25 -8 85 12 98 -21 205 -52 171 -55 -60 -97 -258 -69 -327 124 -305 407 -199 455 171 4 32 4 43 -1 24 -9 -35 -46 -50 -46 -18 0 33 -163 203 -194 203 -25 0 -29 -17 -20 -85z"/> <path d="M2303 4261 c-112 -80 -180 -142 -123 -110 44 24 240 173 240 181 0 13 -7 9 -117 -71z"/> <path d="M6814 4096 c-541 -144 -722 -1471 -264 -1942 249 -257 666 -173 828 167 l23 49 -35 -50 c-423 -587 -1046 -197 -1046 654 1 1015 712 1477 1102 715 90 -177 87 -131 -5 71 -129 282 -347 404 -603 336z"/> <path d="M6810 3969 c-121 -63 -329 -315 -330 -401 0 -28 199 -328 218 -328 8 0 26 11 41 25 15 14 5 -5 -21 -42 -41 -56 -49 -61 -58 -29 -15 54 -136 258 -170 286 -51 42 -113 -203 -117 -464 -3 -190 2 -195 121 -114 69 47 85 53 57 21 -21 -24 -68 -63 -104 -85 -58 -36 -64 -48 -53 -104 146 -772 737 -864 1033 -162 293 699 -127 1650 -617 1397z m-40 -280 c49 -265 51 -282 32 -249 -10 17 -33 109 -51 205 -18 96 -38 191 -45 210 -9 26 -6 29 11 14 13 -12 37 -93 53 -180z m239 -84 c-38 -131 -87 -234 -103 -217 -7 6 -3 23 8 37 11 14 42 105 68 203 26 98 51 158 54 135 4 -24 -8 -95 -27 -158z m147 -219 c-74 -74 -140 -129 -146 -123 -14 14 232 256 260 257 11 0 -41 -60 -114 -134z m-287 -272 c22 -64 -24 -128 -77 -107 -33 12 -46 133 -18 160 28 28 76 1 95 -53z m380 -29 c206 -13 206 -35 0 -51 -270 -20 -283 -66 -96 -352 157 -241 161 -285 6 -69 -183 256 -278 268 -249 31 7 -58 6 -166 -3 -240 l-16 -134 -13 170 c-13 176 -43 270 -92 289 -28 10 -45 -22 -169 -307 -78 -180 -58 -57 23 141 65 159 82 222 74 281 -9 71 -7 75 35 64 48 -12 192 97 165 125 -8 8 12 26 46 40 33 14 60 36 60 48 0 18 8 17 30 -1 16 -13 106 -29 199 -35z m81 -377 c-47 -161 -56 -122 -15 61 23 102 37 138 41 103 4 -29 -8 -103 -26 -164z m119 97 c-37 -221 -141 -432 -266 -541 -71 -62 -200 -128 -229 -118 -13 5 9 22 50 40 189 80 346 303 398 565 27 135 69 184 47 54z"/> <path d="M11567 3071 c-487 -128 -484 -127 -346 -129 67 -1 218 26 380 68 392 101 388 100 395 136 9 43 43 49 -429 -75z"/> <path d="M11730 3020 c-110 -31 -179 -58 -154 -58 70 -3 424 82 424 101 0 27 -56 18 -270 -43z"/> <path d="M11590 2707 c-302 -79 -793 -219 -2730 -777 -291 -84 -782 -223 -1090 -309 -308 -86 -749 -211 -980 -278 -231 -66 -681 -192 -1000 -280 -965 -266 -1726 -480 -2000 -562 -143 -43 -507 -146 -810 -229 -302 -83 -640 -178 -750 -210 l-200 -59 248 -2 247 -1 543 151 c298 84 727 205 952 270 226 64 716 203 1090 307 1818 506 2433 688 4550 1341 50 16 401 124 780 241 1067 328 1468 456 1489 474 24 20 57 28 -339 -77z"/> <path d="M9451 2651 c-43 -13 -69 -30 -57 -37 12 -8 46 -1 76 15 30 15 69 23 86 16 20 -8 26 -4 16 12 -17 27 -17 27 -121 -6z"/> <path d="M9960 2071 c-49 -14 -328 -98 -620 -186 -291 -89 -728 -221 -970 -293 -591 -177 -808 -248 -762 -250 69 -4 2276 648 2492 735 l50 20 -50 0 c-27 0 -90 -12 -140 -26z"/> <path d="M7954 1916 c-173 -45 -312 -85 -307 -89 9 -9 657 150 671 164 18 19 -59 3 -364 -75z"/> <path d="M8940 1312 c-555 -191 -1478 -511 -2050 -712 -572 -201 -1093 -383 -1158 -405 -83 -29 -109 -45 -88 -57 35 -19 367 84 1046 327 264 94 638 227 830 295 340 121 1086 390 2030 732 759 274 466 188 -610 -180z"/> <path d="M6020 1358 c-732 -187 -1737 -487 -1713 -511 19 -20 1470 383 1993 554 193 62 40 39 -280 -43z"/> <path d="M6560 1399 c-71 -24 -85 -33 -41 -26 81 14 225 64 181 64 -16 -1 -79 -18 -140 -38z"/> <path d="M4560 1046 c-851 -197 -1796 -429 -2340 -573 -269 -71 -705 -186 -969 -255 -263 -69 -468 -129 -456 -133 12 -4 555 124 1208 285 653 160 1394 342 1647 404 454 110 1045 274 1066 295 15 15 -6 12 -156 -23z"/> <path d="M4803 920 c-159 -47 -193 -63 -103 -47 90 16 299 83 260 83 -16 1 -87 -16 -157 -36z"/> <path d="M6060 927 c-49 -15 -333 -95 -630 -177 -519 -143 -1358 -381 -2198 -625 l-398 -115 134 -6 c122 -5 208 17 1038 267 497 150 1026 309 1174 352 376 111 1020 318 1020 328 0 14 -44 7 -140 -24z"/> <path d="M5930 712 c-744 -245 -1335 -454 -1322 -467 17 -17 1935 632 1970 666 19 20 -54 -3 -648 -199z"/> <path d="M4460 819 c-71 -24 -85 -33 -41 -26 81 14 225 64 181 64 -16 -1 -79 -18 -140 -38z"/> <path d="M6920 381 c-815 -308 -984 -379 -909 -380 64 -1 1461 547 1507 591 23 22 -73 -12 -598 -211z"/> </g> </svg>